<svg width="132" height="105" viewBox="0 0 132 105" fill="none" xmlns="http://www.w3.org/2000/svg">
<rect x="36" y="8" width="60" height="60" rx="30" fill="#DBEAFE"/>
<path d="M47.061 55.0454V20.9545H65.5269V28.767H84.9398V55.0454H47.061ZM65.5269 52.2045H82.0989V31.6079H65.5269V36.5795H69.3148V39.4204H65.5269V44.392H69.3148V47.2329H65.5269V52.2045Z" fill="#0040E7"/>
<path d="M74.2861 44.392V47.2329H77.127V44.392H74.2861Z" fill="#F2C500"/>
<path d="M74.2861 36.5795V39.4204H77.127V36.5795H74.2861Z" fill="#F2C500"/>
<path d="M54.8734 28.767H49.9019V23.7954H54.8734V28.767Z" fill="#F2C500"/>
<path d="M62.6859 28.767H57.7144V23.7954H62.6859V28.767Z" fill="#F2C500"/>
<path d="M54.8734 36.5795H49.9019V31.6079H54.8734V36.5795Z" fill="#F2C500"/>
<path d="M62.6859 36.5795H57.7144V31.6079H62.6859V36.5795Z" fill="#F2C500"/>
<path d="M54.8734 52.2045H49.9019V47.2329H54.8734V52.2045Z" fill="#F2C500"/>
<path d="M54.8734 44.392H49.9019V39.4204H54.8734V44.392Z" fill="#F2C500"/>
<path d="M62.6859 52.2045H57.7144V47.2329H62.6859V52.2045Z" fill="#F2C500"/>
<path d="M62.6859 44.392H57.7144V39.4204H62.6859V44.392Z" fill="#F2C500"/>
</svg>
