<svg width="132" height="105" viewBox="0 0 132 105" fill="none" xmlns="http://www.w3.org/2000/svg">
<rect x="36" y="8" width="60" height="60" rx="30" fill="#DBEAFE"/>
<path d="M49.9019 56.9393C49.1444 56.9393 48.4815 56.6552 47.9133 56.0871C47.3451 55.5189 47.061 54.856 47.061 54.0984V31.3712C47.061 30.6136 47.3451 29.9507 47.9133 29.3825C48.4815 28.8143 49.1444 28.5302 49.9019 28.5302H61.7391V21.9015C61.7391 21.1439 62.0232 20.481 62.5913 19.9128C63.1595 19.3446 63.8289 19.0605 64.5994 19.0605H67.4014C68.172 19.0605 68.8413 19.3446 69.4095 19.9128C69.9777 20.481 70.2618 21.1439 70.2618 21.9015V28.5302H82.0989C82.8565 28.5302 83.5194 28.8143 84.0876 29.3825C84.6557 29.9507 84.9398 30.6136 84.9398 31.3712V54.0984C84.9398 54.856 84.6557 55.5189 84.0876 56.0871C83.5194 56.6552 82.8565 56.9393 82.0989 56.9393H49.9019ZM49.9019 54.0984H82.0989V31.3712H70.2618V32.7916C70.2618 33.6754 69.9777 34.3699 69.4095 34.8749C68.8413 35.38 68.172 35.6325 67.4014 35.6325H64.5994C63.8289 35.6325 63.1595 35.38 62.5913 34.8749C62.0232 34.3699 61.7391 33.6754 61.7391 32.7916V31.3712H49.9019V54.0984Z" fill="#0040E7"/>
<path d="M78.2162 40.5094H70.167V38.142H78.2162V40.5094Z" fill="#F2C500"/>
<path d="M78.2162 45.8599H70.167V43.4924H78.2162V45.8599Z" fill="#F2C500"/>
<path d="M65.5741 49.0322H54.2578V48.3693C54.2578 47.8011 54.3999 47.2961 54.6839 46.8542C54.968 46.4122 55.3468 46.1124 55.8203 45.9545C56.6726 45.6704 57.4381 45.4574 58.1167 45.3153C58.7954 45.1733 59.4346 45.1023 60.0343 45.1023C60.5709 45.1023 61.1233 45.1575 61.6915 45.268C62.2597 45.3785 63.0488 45.6073 64.0589 45.9545C64.5009 46.1124 64.8639 46.4122 65.148 46.8542C65.4321 47.2961 65.5741 47.8011 65.5741 48.3693V49.0322Z" fill="#0040E7"/>
<path d="M61.8454 42.7467C61.3482 43.2438 60.7446 43.4924 60.0343 43.4924C59.3241 43.4924 58.7204 43.2438 58.2232 42.7467C57.7261 42.2495 57.4775 41.6458 57.4775 40.9356C57.4775 40.2254 57.7261 39.6217 58.2232 39.1245C58.7204 38.6274 59.3241 38.3788 60.0343 38.3788C60.7446 38.3788 61.3482 38.6274 61.8454 39.1245C62.3426 39.6217 62.5911 40.2254 62.5911 40.9356C62.5911 41.6458 62.3426 42.2495 61.8454 42.7467Z" fill="#0040E7"/>
<path d="M67.4205 32.7916H64.5796V21.9015H67.4205V32.7916Z" fill="#F2C500"/>
</svg>
