<svg width="132" height="105" viewBox="0 0 132 105" fill="none" xmlns="http://www.w3.org/2000/svg">
<rect x="36" y="8" width="60" height="60" rx="30" fill="#DBEAFE"/>
<path d="M73.5762 36.106C74.1128 36.106 74.5626 35.9245 74.9256 35.5615C75.2886 35.1985 75.4701 34.7487 75.4701 34.2121C75.4701 33.6754 75.2886 33.2256 74.9256 32.8626C74.5626 32.4996 74.1128 32.3181 73.5762 32.3181C73.0396 32.3181 72.5898 32.4996 72.2268 32.8626C71.8638 33.2256 71.6822 33.6754 71.6822 34.2121C71.6822 34.7487 71.8638 35.1985 72.2268 35.5615C72.5898 35.9245 73.0396 36.106 73.5762 36.106ZM58.4247 31.3712H67.8944V28.5302H58.4247V31.3712ZM51.7959 55.0454C50.7227 51.4469 49.6652 47.8563 48.6235 44.2736C47.5819 40.6909 47.061 37.0214 47.061 33.2651C47.061 30.3611 48.0711 27.8989 50.0913 25.8787C52.1115 23.8585 54.5737 22.8484 57.4777 22.8484H66.9474C67.8628 21.6489 68.9755 20.7177 70.2855 20.0549C71.5954 19.392 73.008 19.0605 74.5232 19.0605C75.3123 19.0605 75.9831 19.3367 76.5355 19.8891C77.0879 20.4415 77.3641 21.1123 77.3641 21.9015C77.3641 22.0908 77.3404 22.2802 77.293 22.4696C77.2457 22.659 77.1905 22.8326 77.1273 22.9905C77.0011 23.3377 76.8827 23.6928 76.7722 24.0558C76.6617 24.4188 76.5749 24.7897 76.5118 25.1685L80.8205 29.4772H84.9398V42.6874L79.5894 44.4393L76.4171 55.0454H66.0004V51.2575H62.2126V55.0454H51.7959ZM53.9266 52.2045H59.3716V48.4166H68.8413V52.2045H74.2864L77.2694 42.2613L82.0989 40.6041V32.3181H79.6368L73.5762 26.2575C73.6078 25.4684 73.7103 24.7029 73.884 23.9611C74.0576 23.2193 74.2391 22.4696 74.4285 21.7121C73.229 22.0277 72.0926 22.4933 71.0194 23.1088C69.9461 23.7244 69.1254 24.5845 68.5572 25.6893H57.4777C55.3853 25.6893 53.5996 26.4289 52.1206 27.9079C50.6415 29.387 49.9019 31.1727 49.9019 33.2651C49.9019 36.5213 50.3596 39.7028 51.2751 42.8096C52.1905 45.9163 53.0743 49.0479 53.9266 52.2045Z" fill="#0040E7"/>
<path d="M59.5137 33.2727H64.4964C65.7755 33.2727 66.8637 33.7118 67.7419 34.5709C68.62 35.43 69.0591 36.4991 69.0591 37.7591C69.0591 39.0191 68.62 40.0882 67.7419 40.9473C66.8637 41.8063 65.7755 42.2454 64.4964 42.2454H62.1482V46.6363H59.5137V33.2727ZM62.1482 39.7827H64.4964C65.6228 39.7827 66.4437 38.9045 66.4437 37.7591C66.4437 36.5945 65.6228 35.7354 64.4964 35.7354H62.1482V39.7827Z" fill="#F2C500"/>
<path d="M61.4547 37.0909H57.8184V34.3636H61.4547V37.0909Z" fill="#F2C500"/>
<path d="M70.091 37.0909H66.9092V34.3636H70.091V37.0909Z" fill="#F2C500"/>
<path d="M61.4547 41.1817H57.8184V38.4545H61.4547V41.1817Z" fill="#F2C500"/>
<path d="M70.091 41.1817H66.4546V38.4545H70.091V41.1817Z" fill="#F2C500"/>
</svg>
