<svg width="132" height="105" viewBox="0 0 132 105" fill="none" xmlns="http://www.w3.org/2000/svg">
<rect x="36" y="8" width="60" height="60" rx="30" fill="#DBEAFE"/>
<path d="M64.5799 24.2689V17.1666H67.4208V24.2689H64.5799ZM76.7011 29.2878L74.7124 27.2519L79.7314 22.2329L81.72 24.2689L76.7011 29.2878ZM79.7314 39.4204V36.5795H86.8337V39.4204H79.7314ZM79.7787 53.7197L74.7598 48.7007L76.7958 46.6647L81.8147 51.6837L79.7787 53.7197ZM55.2996 29.2878L50.2806 24.2689L52.2693 22.2803L57.2882 27.2992L55.2996 29.2878ZM54.6367 52.2045H63.1594C64.2116 52.2045 65.106 51.8373 65.8425 51.1029C66.579 50.3686 66.9473 49.4769 66.9473 48.4278C66.9473 47.3787 66.588 46.4753 65.8695 45.7178C65.151 44.9602 64.2634 44.5814 63.2068 44.5814H61.1234L60.2712 42.6401C59.7931 41.5116 59.0418 40.614 58.0174 39.9472C56.9929 39.2803 55.866 38.9469 54.6367 38.9469C52.7954 38.9469 51.2302 39.5903 49.9413 40.8771C48.6524 42.1638 48.0079 43.7263 48.0079 45.5646C48.0079 47.4028 48.6524 48.969 49.9413 50.2632C51.2302 51.5574 52.7954 52.2045 54.6367 52.2045ZM54.6367 55.0454C52.0167 55.0454 49.7835 54.1221 47.9369 52.2755C46.0903 50.4289 45.167 48.1957 45.167 45.5757C45.167 42.9558 46.0903 40.7225 47.9369 38.8759C49.7835 37.0293 52.0167 36.106 54.6367 36.106C56.4592 36.106 58.1222 36.619 59.6257 37.6448C61.1292 38.6707 62.244 40.0359 62.97 41.7405C64.8677 41.7405 66.4626 42.4284 67.755 43.8044C69.0473 45.1803 69.6935 46.8282 69.6935 48.7481C69.5357 50.5157 68.8407 52.0072 67.6086 53.2225C66.3765 54.4378 64.8935 55.0454 63.1594 55.0454H54.6367ZM69.6935 48.7481C69.5988 48.2624 69.5041 47.7889 69.4094 47.3276C69.3147 46.8663 69.22 46.3928 69.1253 45.9072C70.7667 45.2758 72.0767 44.2415 73.0552 42.804C74.0338 41.3666 74.5231 39.7674 74.5231 38.0065C74.5231 35.6347 73.6945 33.6202 72.0373 31.963C70.3801 30.3058 68.3677 29.4772 66.0003 29.4772C63.8786 29.4772 62.0222 30.1507 60.4309 31.4978C58.8396 32.8448 57.9025 34.5545 57.6196 36.6269C57.1146 36.5322 56.6174 36.4454 56.1282 36.3664C55.6389 36.2875 55.1417 36.2007 54.6367 36.106C55.0786 33.3282 56.3807 31.0555 58.5429 29.2878C60.7052 27.5202 63.191 26.6363 66.0003 26.6363C69.1569 26.6363 71.84 27.7411 74.0496 29.9507C76.2592 32.1603 77.364 34.8488 77.364 38.0162C77.364 40.4675 76.6616 42.6717 75.257 44.6287C73.8523 46.5858 71.9978 47.9589 69.6935 48.7481Z" fill="#0040E7"/>
<path fill-rule="evenodd" clip-rule="evenodd" d="M64.58 24.2689V17.1666H67.4209V24.2689H64.58ZM76.7012 29.2878L74.7126 27.2519L79.7315 22.2329L81.7202 24.2689L76.7012 29.2878ZM79.7315 39.4204V36.5795H86.8338V39.4204H79.7315ZM79.7789 53.7197L74.7599 48.7007L76.7959 46.6647L81.8149 51.6837L79.7789 53.7197ZM55.2997 29.2878L50.2808 24.2689L52.2694 22.2803L57.2883 27.2992L55.2997 29.2878ZM69.6936 48.7481C69.6936 47.7215 69.5089 46.7728 69.1394 45.9018C70.7743 45.27 72.0796 44.2374 73.0554 42.804C74.0339 41.3666 74.5232 39.7674 74.5232 38.0065C74.5232 35.6347 73.6946 33.6202 72.0374 31.963C70.3802 30.3058 68.3679 29.4772 66.0005 29.4772C63.8788 29.4772 62.0223 30.1507 60.431 31.4978C58.8429 32.8421 57.9064 34.5477 57.6215 36.6145C56.6793 36.2755 55.6844 36.106 54.6368 36.106C55.0787 33.3282 56.3808 31.0555 58.5431 29.2878C60.7053 27.5202 63.1911 26.6363 66.0005 26.6363C69.157 26.6363 71.8401 27.7411 74.0497 29.9507C76.2593 32.1603 77.3641 34.8488 77.3641 38.0162C77.3641 40.4675 76.6618 42.6717 75.2571 44.6287C73.8524 46.5858 71.9979 47.9589 69.6936 48.7481Z" fill="#F2C500"/>
</svg>
