<svg width="132" height="105" viewBox="0 0 132 105" fill="none" xmlns="http://www.w3.org/2000/svg">
<rect x="36" y="8" width="60" height="60" rx="30" fill="#DBEAFE"/>
<path d="M65.953 54.5909L52.2219 47.0625V35.6989L45.167 31.8636L65.953 20.5L86.8337 31.8636V46.8731H83.9927V33.5208L79.684 35.6989V47.0625L65.953 54.5909ZM65.953 40.0076L80.8677 31.8636L65.953 23.8617L51.1329 31.8636L65.953 40.0076ZM65.953 51.3712L76.8431 45.358V37.4034L65.953 43.2273L55.0628 37.3087V45.358L65.953 51.3712Z" fill="#0040E7"/>
<path d="M70.1956 55.2269L69.522 57.7408L72.0359 58.4145L81.7334 52.8156L79.893 49.628L70.1956 55.2269Z" fill="#F2C500"/>
<path d="M81.8236 48.5135L83.6639 51.7011L84.9659 50.9494C85.2053 50.8111 85.3662 50.5886 85.4484 50.2817C85.5306 49.9748 85.5026 49.7017 85.3644 49.4622L84.6127 48.1603C84.4744 47.9208 84.2519 47.76 83.945 47.6777C83.6381 47.5955 83.365 47.6235 83.1255 47.7618L81.8236 48.5135Z" fill="#F2C500"/>
</svg>
