<svg width="132" height="105" viewBox="0 0 132 105" fill="none" xmlns="http://www.w3.org/2000/svg">
<rect x="36" y="8" width="60" height="60" rx="30" fill="#DBEAFE"/>
<path d="M61.2656 26.6363H70.7353V21.9015H61.2656V26.6363ZM49.9019 55.0454C49.1444 55.0454 48.4815 54.7613 47.9133 54.1931C47.3451 53.6249 47.061 52.9621 47.061 52.2045V29.4772C47.061 28.7196 47.3451 28.0568 47.9133 27.4886C48.4815 26.9204 49.1444 26.6363 49.9019 26.6363H58.4247V21.9015C58.4247 21.1439 58.7088 20.481 59.2769 19.9128C59.8451 19.3446 60.508 19.0605 61.2656 19.0605H70.7353C71.4929 19.0605 72.1557 19.3446 72.7239 19.9128C73.2921 20.481 73.5762 21.1439 73.5762 21.9015V26.6363H82.0989C82.8565 26.6363 83.5194 26.9204 84.0875 27.4886C84.6557 28.0568 84.9398 28.7196 84.9398 29.4772V40.4147C84.4979 40.0675 84.0481 39.7676 83.5904 39.5151C83.1327 39.2626 82.6355 39.0258 82.0989 38.8049V29.4772H49.9019V52.2045H66.2372C66.3256 52.7044 66.4581 53.1923 66.6349 53.6684C66.8117 54.1445 67.0105 54.6035 67.2315 55.0454H49.9019Z" fill="#0040E7"/>
<path fill-rule="evenodd" clip-rule="evenodd" d="M76.8096 56.9015C74.3192 56.9015 72.1981 56.0239 70.4462 54.2686C68.6943 52.5134 67.8184 50.3906 67.8184 47.9002C67.8184 45.4099 68.696 43.2888 70.4512 41.5369C72.2065 39.785 74.3293 38.9091 76.8196 38.9091C79.3099 38.9091 81.431 39.7867 83.1829 41.5419C84.9348 43.2972 85.8108 45.4199 85.8108 47.9103C85.8108 50.4006 84.9332 52.5217 83.1779 54.2736C81.4227 56.0255 79.2999 56.9015 76.8096 56.9015Z" fill="#0040E7"/>
<path d="M82.1651 45.4432L75.489 52.1667L71.4644 48.1421L72.7901 46.7689L75.489 49.4678L80.8394 44.1174L82.1651 45.4432Z" fill="#F2C500"/>
</svg>
