<svg width="132" height="105" viewBox="0 0 132 105" fill="none" xmlns="http://www.w3.org/2000/svg">
<rect x="36" y="8" width="60" height="60" rx="30" fill="#DBEAFE"/>
<rect x="70.5454" y="43" width="10.9091" height="5.90909" fill="#F2C500"/>
<path d="M71.6817 56.9394C70.9242 56.9394 70.2613 56.6553 69.6931 56.0871C69.1249 55.5189 68.8408 54.856 68.8408 54.0985V41.5038C68.8408 40.4937 68.9671 39.7282 69.2196 39.2074C69.4721 38.6865 69.8036 38.2052 70.2139 37.7632C70.8137 37.1319 71.2082 36.6427 71.3976 36.2954C71.587 35.9482 71.6817 35.5694 71.6817 35.1591V33.7386H71.2082C70.8058 33.7386 70.4684 33.6017 70.1962 33.3279C69.9239 33.054 69.7878 32.7147 69.7878 32.3099C69.7878 31.905 69.9298 31.5685 70.2139 31.3002C70.498 31.0319 70.8295 30.8977 71.2082 30.8977H80.6779C81.0804 30.8977 81.4178 31.0346 81.69 31.3085C81.9623 31.5823 82.0984 31.9216 82.0984 32.3264C82.0984 32.7313 81.9623 33.0678 81.69 33.3362C81.4178 33.6045 81.0804 33.7386 80.6779 33.7386H80.2045V35.1591C80.2045 35.5379 80.3228 35.9324 80.5596 36.3428C80.7963 36.7531 81.2146 37.274 81.8143 37.9053C82.2247 38.3472 82.5324 38.8049 82.7376 39.2784C82.9428 39.7519 83.0454 40.4937 83.0454 41.5038V54.0985C83.0454 54.856 82.7613 55.5189 82.1931 56.0871C81.6249 56.6553 80.962 56.9394 80.2045 56.9394H71.6817ZM71.6817 42.7348H80.2045V41.5038C80.2045 40.9356 80.0466 40.4305 79.731 39.9886C79.4153 39.5467 79.0681 39.089 78.6893 38.6155C78.2158 38.0158 77.8765 37.4634 77.6713 36.9583C77.4661 36.4533 77.3635 35.8535 77.3635 35.1591V33.7386H74.5226V35.1591C74.5226 35.8219 74.4279 36.4059 74.2385 36.911C74.0492 37.416 73.7177 37.9684 73.2442 38.5682C72.8654 39.0416 72.5103 39.5072 72.1789 39.9649C71.8474 40.4226 71.6817 40.9356 71.6817 41.5038V42.7348ZM71.6817 48.4166H80.2045V44.6288H71.6817V48.4166ZM71.6817 54.0985H80.2045V50.3106H71.6817V54.0985Z" fill="#0040E7"/>
<rect x="51" y="39.3636" width="10.9091" height="5.90909" fill="#F2C500"/>
<path fill-rule="evenodd" clip-rule="evenodd" d="M57.9508 57.8863L55.1099 55.7556V46.9962H52.269C51.5115 46.9962 50.8486 46.7121 50.2804 46.1439C49.7122 45.5757 49.4281 44.9128 49.4281 44.1552V29.0037H48.9546C48.5522 29.0037 48.2148 28.8668 47.9426 28.593C47.6703 28.3191 47.5342 27.9798 47.5342 27.575C47.5342 27.1702 47.6703 26.8336 47.9426 26.5653C48.2148 26.297 48.5522 26.1628 48.9546 26.1628H55.1099V21.9015H53.6895C53.287 21.9015 52.9497 21.7645 52.6774 21.4907C52.4052 21.2168 52.269 20.8775 52.269 20.4727C52.269 20.0679 52.4052 19.7313 52.6774 19.463C52.9497 19.1947 53.287 19.0605 53.6895 19.0605H59.3713C59.7738 19.0605 60.1111 19.1975 60.3834 19.4713C60.6556 19.7452 60.7918 20.0845 60.7918 20.4893C60.7918 20.8941 60.6556 21.2307 60.3834 21.499C60.1111 21.7673 59.7738 21.9015 59.3713 21.9015H57.9508V26.1628H64.1061C64.5086 26.1628 64.846 26.2997 65.1182 26.5736C65.3905 26.8474 65.5266 27.1868 65.5266 27.5916C65.5266 27.9964 65.3905 28.333 65.1182 28.6013C64.846 28.8696 64.5086 29.0037 64.1061 29.0037H63.6327V44.1552C63.6327 44.9128 63.3486 45.5757 62.7804 46.1439C62.2122 46.7121 61.5493 46.9962 60.7918 46.9962H57.9508V57.8863ZM52.269 44.1553H60.7917V40.3674H57.0038C56.7513 40.3674 56.5303 40.2727 56.3409 40.0833C56.1516 39.8939 56.0569 39.6729 56.0569 39.4204C56.0569 39.1679 56.1516 38.9469 56.3409 38.7575C56.5303 38.5681 56.7513 38.4734 57.0038 38.4734H60.7917V34.6856H57.0038C56.7513 34.6856 56.5303 34.5909 56.3409 34.4015C56.1516 34.2121 56.0569 33.9911 56.0569 33.7386C56.0569 33.4861 56.1516 33.2651 56.3409 33.0757C56.5303 32.8863 56.7513 32.7916 57.0038 32.7916H60.7917V29.0038H52.269V44.1553Z" fill="#0040E7"/>
</svg>
