<svg width="132" height="105" viewBox="0 0 132 105" fill="none" xmlns="http://www.w3.org/2000/svg">
<rect x="36" y="8" width="60" height="60" rx="30" fill="#DBEAFE"/>
<path d="M73.6235 55.0454V52.2045H83.9928V23.7954H65.2901V29.0984L62.4492 27.1098V20.9545H86.8337V55.0454H73.6235Z" fill="#0040E7"/>
<path fill-rule="evenodd" clip-rule="evenodd" d="M45.167 55.0454V36.5795L57.9984 27.3939L70.7825 36.5795V55.0454H60.5079V45.5284H55.489V55.0454H45.167ZM48.0079 52.2045H52.6481V42.6875H63.3488V52.2045H67.9416V38.0473L57.9984 30.8977L48.0079 38.0673V52.2045Z" fill="#0040E7"/>
<path d="M79.1158 31.2291H76.2749V28.3882H79.1158V31.2291Z" fill="#F2C500"/>
<path d="M79.1158 39.3257H76.2749V36.4848H79.1158V39.3257Z" fill="#F2C500"/>
<path d="M79.1158 47.3749H76.2749V44.534H79.1158V47.3749Z" fill="#F2C500"/>
</svg>
