<svg width="132" height="105" viewBox="0 0 132 105" fill="none" xmlns="http://www.w3.org/2000/svg">
<rect x="36" y="8" width="60" height="60" rx="30" fill="#DBEAFE"/>
<path fill-rule="evenodd" clip-rule="evenodd" d="M49.9019 53.1515H82.0989C82.8802 53.1515 83.549 52.8734 84.1053 52.317C84.6617 51.7607 84.9398 51.0919 84.9398 50.3106V25.6894C84.9398 24.9082 84.6617 24.2394 84.1053 23.683C83.549 23.1267 82.8802 22.8485 82.0989 22.8485H49.9019C49.1207 22.8485 48.4519 23.1267 47.8956 23.683C47.3392 24.2394 47.061 24.9082 47.061 25.6894V32.9337C48.229 33.1547 49.1996 33.7387 49.973 34.6856C50.7463 35.6326 51.133 36.7374 51.133 38C51.133 39.2627 50.7463 40.3596 49.973 41.2907C49.1996 42.2219 48.229 42.8138 47.061 43.0663V50.3106C47.061 51.0919 47.3392 51.7607 47.8956 52.317C48.4519 52.8734 49.1207 53.1515 49.9019 53.1515ZM82.0989 25.6894V50.3106H49.9019V45.1496C51.133 44.3289 52.1194 43.3031 52.8612 42.072C53.603 40.8409 53.9739 39.4836 53.9739 38C53.9739 36.5164 53.603 35.1591 52.8612 33.9281C52.1194 32.697 51.133 31.6711 49.9019 30.8504V25.6894H82.0989Z" fill="#0040E7"/>
<path d="M59.7501 45.339L77.1743 40.5568C77.7109 40.399 78.1055 40.1464 78.358 39.7992C78.6106 39.452 78.6579 39.0101 78.5001 38.4734C78.3422 37.9368 78.0582 37.5659 77.6478 37.3608C77.2374 37.1556 76.783 37.1182 76.2844 37.2487L71.3978 38.5208L63.538 30.8503L61.0758 31.4185L65.9527 39.9886L60.697 41.4564L58.2349 39.4204L56.8618 39.8939L59.7501 45.339Z" fill="#F2C500"/>
</svg>
