<svg width="132" height="105" viewBox="0 0 132 105" fill="none" xmlns="http://www.w3.org/2000/svg">
<rect x="36" y="8" width="60" height="60" rx="30" fill="#DBEAFE"/>
<path d="M70.0723 57.7917L55.3469 53.5777V56.2765H45.167V37.6212H59.7977L71.8715 42.1667C72.7238 42.4823 73.4419 42.9953 74.0259 43.7055C74.6099 44.4157 74.9018 45.4337 74.9018 46.7595H80.2996C81.6253 46.7595 82.7301 47.233 83.614 48.1799C84.4978 49.1269 84.9397 50.4053 84.9397 52.0152V53.2462L70.0723 57.7917ZM48.0079 53.4356H52.4587V40.4621H48.0079V53.4356ZM69.8829 54.8561L82.0041 51.1629C81.8147 50.5631 81.578 50.1528 81.2939 49.9318C81.0098 49.7109 80.6784 49.6004 80.2996 49.6004H70.4984C69.5515 49.6004 68.6755 49.5373 67.8706 49.411C67.0657 49.2847 66.3002 49.1111 65.5742 48.8902L61.739 47.7064L62.7806 44.9602L66.2371 46.0966C67.0262 46.3491 67.7759 46.5227 68.4861 46.6174C69.1963 46.7121 70.3248 46.7595 71.8715 46.7595C71.8715 46.3807 71.8005 46.0098 71.6585 45.6468C71.5164 45.2838 71.2718 45.0234 70.9246 44.8655L59.3242 40.4621H55.3469V50.5947L69.8829 54.8561Z" fill="#0040E7"/>
<path fill-rule="evenodd" clip-rule="evenodd" d="M73.8598 39.0417C72.3762 37.7159 70.9637 36.4217 69.6221 35.1591C68.2806 33.8965 67.1058 32.6663 66.0977 31.4685C65.0897 30.2707 64.2848 29.1113 63.683 27.9903C63.0812 26.8693 62.7803 25.7867 62.7803 24.7425C62.7803 23.1087 63.3361 21.7375 64.4479 20.6289C65.5596 19.5202 66.9346 18.9659 68.5729 18.9659C69.5091 18.9659 70.4428 19.2264 71.374 19.7472C72.3052 20.268 73.1338 20.9704 73.8598 21.8542C74.5858 20.9704 75.4144 20.268 76.3456 19.7472C77.2768 19.2264 78.2105 18.9659 79.1467 18.9659C80.785 18.9659 82.1601 19.5202 83.2718 20.6289C84.3835 21.7375 84.9394 23.1087 84.9394 24.7425C84.9394 25.7867 84.6385 26.8693 84.0367 27.9903C83.4348 29.1113 82.6299 30.2707 81.6219 31.4685C80.6138 32.6663 79.4363 33.8992 78.0891 35.1672C76.742 36.4352 75.3323 37.7267 73.8598 39.0417ZM79.5416 29.4773C77.8371 31.3397 75.9432 33.2178 73.8598 35.1118C71.7765 33.2178 69.8825 31.3397 68.178 29.4773C66.4735 27.6149 65.6212 26.0366 65.6212 24.7425C65.6212 23.8768 65.8951 23.1712 66.443 22.6254C66.9908 22.0797 67.6992 21.8069 68.5682 21.8069C69.0972 21.8069 69.6221 21.9331 70.143 22.1856C70.6638 22.4382 71.1925 22.9116 71.7291 23.6061L73.8598 26.2103L75.9905 23.6061C76.5271 22.9116 77.0558 22.4382 77.5767 22.1856C78.0975 21.9331 78.6224 21.8069 79.1514 21.8069C80.0204 21.8069 80.7288 22.0797 81.2767 22.6254C81.8245 23.1712 82.0985 23.8768 82.0985 24.7425C82.0985 26.0366 81.2462 27.6149 79.5416 29.4773Z" fill="#F2C500"/>
</svg>
