<svg width="132" height="105" viewBox="0 0 132 105" fill="none" xmlns="http://www.w3.org/2000/svg">
<rect x="36" y="8" width="60" height="60" rx="30" fill="#DBEAFE"/>
<path d="M66.0478 56.9394C63.4594 56.9394 61.0131 56.4422 58.7088 55.4479C56.4045 54.4536 54.3922 53.1042 52.6718 51.3996C50.9515 49.6951 49.5942 47.6906 48.5999 45.3863C47.6056 43.0821 47.1084 40.6357 47.1084 38.0473C47.1084 33.06 48.7893 28.767 52.151 25.1685C55.5128 21.5701 59.6873 19.5814 64.6747 19.2026V24.0322C61.0446 24.3794 58.0143 25.8867 55.5838 28.554C53.1532 31.2213 51.9379 34.3857 51.9379 38.0473C51.9379 41.9615 53.311 45.2838 56.0573 48.0142C58.8035 50.7446 62.1337 52.1098 66.0478 52.1098C68.3205 52.1098 70.467 51.5969 72.4872 50.571C74.5074 49.5451 76.2277 48.101 77.6482 46.2386L81.8148 48.6534C79.984 51.2733 77.6876 53.3093 74.9256 54.7613C72.1636 56.2134 69.2044 56.9394 66.0478 56.9394Z" fill="#0040E7"/>
<path fill-rule="evenodd" clip-rule="evenodd" d="M61.7868 31.1818H66.7695C67.9413 31.1818 68.9529 31.5503 69.7896 32.2727H72.364V35H71.2887C71.3177 35.2163 71.3322 35.4391 71.3322 35.6681C71.3322 35.9068 71.3164 36.1387 71.2849 36.3636H72.364V39.0909H69.7577C68.9272 39.7952 67.9265 40.1545 66.7695 40.1545H64.4213V44.5454H61.7868V39.0909H60.0913V36.3636H61.7868V35H60.0913V32.2727H61.7868V31.1818ZM64.4213 37.6918H66.7695C67.8958 37.6918 68.7168 36.8136 68.7168 35.6681C68.7168 34.5036 67.8958 33.6445 66.7695 33.6445H64.4213V37.6918Z" fill="#F2C500"/>
<path d="M79.0213 43.7765L83.188 46.0966C83.7877 44.7392 84.2375 43.374 84.5374 42.0009C84.8373 40.6278 84.9872 39.231 84.9872 37.8106C84.9872 32.8863 83.3142 28.6329 79.9683 25.0502C76.6223 21.4675 72.4714 19.5025 67.5156 19.1553V23.9848C71.1141 24.3005 74.1207 25.7998 76.5355 28.4829C78.9503 31.166 80.1577 34.3384 80.1577 38C80.1577 38.9469 80.063 39.9018 79.8736 40.8646C79.6842 41.8273 79.4001 42.7979 79.0213 43.7765Z" fill="#F2C500"/>
</svg>
