<svg width="132" height="105" viewBox="0 0 132 105" fill="none" xmlns="http://www.w3.org/2000/svg">
<rect x="36" y="8" width="60" height="60" rx="30" fill="#DBEAFE"/>
<path d="M62.8281 52.1099V41.3618L65.5269 33.4072C65.5901 33.1863 65.7163 32.9969 65.9057 32.839C66.0951 32.6812 66.3634 32.6023 66.7107 32.6023H81.0572C81.4045 32.6023 81.6649 32.6733 81.8385 32.8154C82.0121 32.9574 82.1463 33.1547 82.241 33.4072L84.9398 41.3618V52.1099C84.9398 52.4037 84.8397 52.6507 84.6393 52.8511C84.439 53.0514 84.192 53.1515 83.8982 53.1515H82.8444C82.5684 53.1515 82.3278 53.0514 82.1226 52.8511C81.9174 52.6507 81.8148 52.4037 81.8148 52.1099V49.9792H65.9531V52.1099C65.9531 52.4037 65.8529 52.6507 65.6526 52.8511C65.4523 53.0514 65.2052 53.1515 64.9114 53.1515H63.8576C63.5816 53.1515 63.341 53.0514 63.1358 52.8511C62.9307 52.6507 62.8281 52.4037 62.8281 52.1099ZM65.3376 39.9413H82.4304L80.6311 34.4962H67.1368L65.3376 39.9413ZM51.0383 53.1515V52.1572L53.7372 49.4584C51.9379 49.4584 50.3754 48.9138 49.0497 47.8248C47.7239 46.7358 47.061 45.339 47.061 43.6345V28.1042C47.061 26.0209 47.8817 24.6241 49.5232 23.9139C51.1646 23.2036 54.4158 22.8485 59.2769 22.8485C63.7908 22.8485 66.9553 23.2352 68.7703 24.0085C70.5853 24.7819 71.4929 26.1471 71.4929 28.1042V31.1818H68.6519V27.536H49.9019V40.2728H61.4076V53.1515H51.0383ZM64.722 48.0853H83.0459V41.8353H64.722V48.0853Z" fill="#0040E7"/>
<path d="M69.2096 46.3233C68.8557 46.6772 68.4172 46.8541 67.894 46.8541C67.3708 46.8541 66.9322 46.6772 66.5782 46.3233C66.2243 45.9693 66.0474 45.5307 66.0474 45.0075C66.0474 44.4843 66.2243 44.0458 66.5782 43.6918C66.9322 43.3379 67.3708 43.1609 67.894 43.1609C68.4172 43.1609 68.8557 43.3379 69.2096 43.6918C69.5636 44.0458 69.7406 44.4843 69.7406 45.0075C69.7406 45.5307 69.5636 45.9693 69.2096 46.3233Z" fill="#F2C500"/>
<path d="M81.1888 46.3233C80.8349 46.6772 80.3963 46.8541 79.8731 46.8541C79.3499 46.8541 78.9114 46.6772 78.5575 46.3233C78.2035 45.9693 78.0265 45.5307 78.0265 45.0075C78.0265 44.4843 78.2035 44.0458 78.5575 43.6918C78.9114 43.3379 79.3499 43.1609 79.8731 43.1609C80.3963 43.1609 80.8349 43.3379 81.1888 43.6918C81.5428 44.0458 81.7197 44.4843 81.7197 45.0075C81.7197 45.5307 81.5428 45.9693 81.1888 46.3233Z" fill="#F2C500"/>
<path d="M53.632 44.9502C53.2781 45.3041 52.8395 45.481 52.3163 45.481C51.7931 45.481 51.3545 45.3041 51.0006 44.9502C50.6467 44.5962 50.4697 44.1576 50.4697 43.6344C50.4697 43.1112 50.6467 42.6727 51.0006 42.3187C51.3545 41.9648 51.7931 41.7878 52.3163 41.7878C52.8395 41.7878 53.2781 41.9648 53.632 42.3187C53.986 42.6727 54.1629 43.1112 54.1629 43.6344C54.1629 44.1576 53.986 44.5962 53.632 44.9502Z" fill="#F2C500"/>
</svg>
